<?xml version="1.0" encoding="iso-8859-1"?>
<!-- Uploaded to: SVG Repo, www.svgrepo.com, Generator: SVG Repo Mixer Tools -->
<svg fill="#000000" version="1.1" id="Layer_1" xmlns="http://www.w3.org/2000/svg" xmlns:xlink="http://www.w3.org/1999/xlink" 
	 viewBox="0 0 512 512" xml:space="preserve">
<g>
	<g>
		<path d="M496.327,360.202v0.001v24.033h-15.673v-24.033H464.98v24.033h-15.674v-24.033h-15.673v24.033h-16.718v-24.033h-15.673
			v24.033h-15.674v-24.033h-15.673v24.033H354.22v-24.033h-15.673v24.033h-15.673v-24.033H307.2v24.033h-15.673V250.03
			l21.009,21.009l33.363-33.361L173.291,65.072l-18.234,18.233H55.38v15.673h84.005l-8.359,8.359H62.694v68.331L0.684,237.678
			l33.361,33.361l14.019-14.019v127.214H31.347v-24.033H15.673v24.033H0v15.673h15.673v22.988h15.673v-22.988h16.718v22.988h15.673
			v-55.38h54.335v-15.673H63.739V242.128h-0.782l110.335-110.334l102.561,102.562v117.486h-55.38v15.673h55.38v55.38h15.673v-22.988
			H307.2v22.988h15.673v-22.988h15.673v22.988h15.673v-22.988h15.673v22.988h15.673v-22.988h15.674v22.988h15.673v-22.988h16.718
			v22.988h15.673v-22.988h15.674v22.988h15.673v-22.988h15.673v22.988H512v-62.694H496.327z M78.367,123.011h36.984l-36.984,36.984
			V123.011z M173.291,109.63L34.046,248.874L22.85,237.678L173.291,87.237l150.441,150.441l-11.197,11.196L173.291,109.63z"/>
	</g>
</g>
<g>
	<g>
		<path d="M212.635,431.255v-110.83h-78.688v110.83H0v15.673h512v-15.673H212.635z M196.961,430.701H149.62v-94.603h47.341V430.701z
			"/>
	</g>
</g>
<g>
	<g>
		<rect x="157.78" y="383.196" width="15.673" height="15.673"/>
	</g>
</g>
<g>
	<g>
		<path d="M86.686,233.78v62.934H252.02V233.78H86.686z M166.139,281.04h-63.78v-31.587h63.78V281.04z M236.347,281.04h-54.534
			v-31.587h54.534V281.04z"/>
	</g>
</g>
<g>
	<g>
		<rect x="142.106" y="185.7" width="14.629" height="15.673"/>
	</g>
</g>
<g>
	<g>
		<rect x="166.139" y="185.7" width="14.629" height="15.673"/>
	</g>
</g>
<g>
	<g>
		<rect x="189.127" y="185.7" width="15.673" height="15.673"/>
	</g>
</g>
</svg>